<mxfile host="app.diagrams.net" modified="2022-09-05T06:35:24.183Z" agent="5.0 (Windows NT 10.0; Win64; x64) AppleWebKit/537.36 (KHTML, like Gecko) Chrome/105.0.0.0 Safari/537.36" etag="8ClMgluKzouHb-AtweCi" version="20.2.8" type="github">
  <diagram id="EZKGUkusoCaE7YDTppVV" name="Trang-1">
    <mxGraphModel dx="782" dy="738" grid="1" gridSize="10" guides="1" tooltips="1" connect="1" arrows="1" fold="1" page="1" pageScale="1" pageWidth="827" pageHeight="1169" math="0" shadow="0">
      <root>
        <mxCell id="0" />
        <mxCell id="1" parent="0" />
        <mxCell id="e_YN1iP-CZVPjmBWWSA5-1" value="&lt;h1&gt;&lt;span style=&quot;font-weight: normal;&quot;&gt;Axit&lt;/span&gt;&lt;/h1&gt;" style="rounded=1;whiteSpace=wrap;html=1;" vertex="1" parent="1">
          <mxGeometry x="340" y="290" width="110" height="70" as="geometry" />
        </mxCell>
        <mxCell id="e_YN1iP-CZVPjmBWWSA5-2" value="&lt;h1&gt;&lt;span style=&quot;font-weight: normal;&quot;&gt;&lt;font face=&quot;Times New Roman&quot;&gt;BazÆ¡&lt;/font&gt;&lt;/span&gt;&lt;/h1&gt;" style="rounded=1;whiteSpace=wrap;html=1;" vertex="1" parent="1">
          <mxGeometry x="340" y="400" width="110" height="70" as="geometry" />
        </mxCell>
        <mxCell id="e_YN1iP-CZVPjmBWWSA5-3" value="" style="curved=1;endArrow=classic;html=1;rounded=0;fontFamily=Times New Roman;exitX=0;exitY=0.5;exitDx=0;exitDy=0;entryX=0;entryY=0.5;entryDx=0;entryDy=0;" edge="1" parent="1" source="e_YN1iP-CZVPjmBWWSA5-1" target="e_YN1iP-CZVPjmBWWSA5-2">
          <mxGeometry width="50" height="50" relative="1" as="geometry">
            <mxPoint x="380" y="360" as="sourcePoint" />
            <mxPoint x="430" y="310" as="targetPoint" />
            <Array as="points">
              <mxPoint x="260" y="260" />
              <mxPoint x="180" y="340" />
              <mxPoint x="230" y="480" />
            </Array>
          </mxGeometry>
        </mxCell>
      </root>
    </mxGraphModel>
  </diagram>
</mxfile>
